{
  "accessors": [
    {
      "bufferView": 2,
      "componentType": 5126,
      "count": 4830,
      "max": [
        5.0782575607299805,
        2.6274809837341309,
        4.6221141815185547
      ],
      "min": [
        -4.4965991973876953,
        -2.6763036251068115,
        -4.0417571067810059
      ],
      "type": "VEC3"
    },
    {
      "bufferView": 2,
      "byteOffset": 57960,
      "componentType": 5126,
      "count": 4830,
      "max": [
        0.99999082088470459,
        0.99957728385925293,
        0.99899667501449585
      ],
      "min": [
        -0.99750691652297974,
        -0.99944645166397095,
        -1
      ],
      "type": "VEC3"
    },
    {
      "bufferView": 3,
      "componentType": 5126,
      "count": 4830,
      "max": [
        0.99981766939163208,
        0.99997067451477051,
        0.99941688776016235,
        1
      ],
      "min": [
        -0.99982494115829468,
        -0.99979907274246216,
        -0.99924725294113159,
        -1
      ],
      "type": "VEC4"
    },
    {
      "bufferView": 1,
      "componentType": 5126,
      "count": 4830,
      "max": [
        0.89787840843200684,
        0.99963009357452393
      ],
      "min": [
        0.00036991556407883763,
        0.00036991556407883763
      ],
      "type": "VEC2"
    },
    {
      "bufferView": 0,
      "componentType": 5125,
      "count": 7308,
      "max": [
        4829
      ],
      "min": [
        0
      ],
      "type": "SCALAR"
    }
  ],
  "asset": {
    "extras": {
      "author": "IzzyScarlet (https://sketchfab.com/IzzyScarlet)",
      "license": "CC-BY-4.0 (http://creativecommons.org/licenses/by/4.0/)",
      "source": "https://sketchfab.com/models/8469d93fa15a4ebd8294d4b83a7df250",
      "title": "Archway"
    },
    "generator": "Sketchfab-3.18.7",
    "version": "2.0"
  },
  "bufferViews": [
    {
      "buffer": 0,
      "byteLength": 29232,
      "byteOffset": 0,
      "name": "floatBufferViews",
      "target": 34963
    },
    {
      "buffer": 0,
      "byteLength": 38640,
      "byteOffset": 29232,
      "byteStride": 8,
      "name": "floatBufferViews",
      "target": 34962
    },
    {
      "buffer": 0,
      "byteLength": 115920,
      "byteOffset": 67872,
      "byteStride": 12,
      "name": "floatBufferViews",
      "target": 34962
    },
    {
      "buffer": 0,
      "byteLength": 77280,
      "byteOffset": 183792,
      "byteStride": 16,
      "name": "floatBufferViews",
      "target": 34962
    }
  ],
  "buffers": [
    {
      "byteLength": 261072,
      "uri": "scene.bin"
    }
  ],
  "images": [
    {
      "uri": "textures/Material_normal.png"
    },
    {
      "uri": "textures/Material_baseColor.png"
    }
  ],
  "materials": [
    {
      "doubleSided": true,
      "emissiveFactor": [
        0,
        0,
        0
      ],
      "name": "Material",
      "normalTexture": {
        "index": 0,
        "scale": 1,
        "texCoord": 0
      },
      "pbrMetallicRoughness": {
        "baseColorFactor": [
          1,
          1,
          1,
          1
        ],
        "baseColorTexture": {
          "index": 1,
          "texCoord": 0
        },
        "metallicFactor": 0,
        "roughnessFactor": 0.59999999999999998
      }
    }
  ],
  "meshes": [
    {
      "name": "Cube_Material_0",
      "primitives": [
        {
          "attributes": {
            "NORMAL": 1,
            "POSITION": 0,
            "TANGENT": 2,
            "TEXCOORD_0": 3
          },
          "indices": 4,
          "material": 0,
          "mode": 4
        }
      ]
    }
  ],
  "nodes": [
    {
      "children": [
        1
      ],
      "name": "RootNode (gltf orientation matrix)",
      "rotation": [
        -0.70710678118654746,
        -0,
        -0,
        0.70710678118654757
      ]
    },
    {
      "children": [
        2
      ],
      "name": "RootNode (model correction matrix)"
    },
    {
      "children": [
        3
      ],
      "matrix": [
        1,
        0,
        0,
        0,
        0,
        0,
        1,
        0,
        0,
        -1,
        0,
        0,
        0,
        0,
        0,
        1
      ],
      "name": "2e6540edc9b94c2091dcf0025c131ee1.fbx"
    },
    {
      "children": [
        4,
        6,
        9
      ],
      "name": "RootNode"
    },
    {
      "children": [
        5
      ],
      "matrix": [
        1,
        0,
        0,
        0,
        -0,
        -1.6292067939183141e-07,
        -0.99999999999998679,
        0,
        0,
        0.99999999999998679,
        -1.6292067939183141e-07,
        0,
        -0.31223082542419434,
        1.7775088548660278,
        1.0222052335739136,
        1
      ],
      "name": "Cube"
    },
    {
      "mesh": 0,
      "name": "Cube_Material_0"
    },
    {
      "children": [
        7
      ],
      "matrix": [
        -0.29086456714671732,
        -0.055189317573633323,
        -0.9551710965031468,
        0,
        -0.56639277599352056,
        -0.794672338632467,
        0.21839125414476446,
        0,
        -0.77110100525499836,
        0.60452435856755926,
        0.19988321884202093,
        0,
        4.0762453079223633,
        5.9038619995117188,
        -1.0054539442062378,
        1
      ],
      "name": "Lamp"
    },
    {
      "children": [
        8
      ],
      "matrix": [
        1,
        0,
        0,
        0,
        0,
        2.2204460492503131e-16,
        1,
        0,
        0,
        -1,
        2.2204460492503131e-16,
        0,
        0,
        0,
        0,
        1
      ],
      "name": ""
    },
    {
      "name": ""
    },
    {
      "children": [
        10
      ],
      "matrix": [
        0.65486180951010686,
        0.44524536775376433,
        0.6106656801712077,
        0,
        -0.31737009823248541,
        0.89534321079748203,
        -0.31246861669209625,
        0,
        -0.68588061584057025,
        0.01081673748369022,
        0.72763368462734679,
        0,
        7.4811315536499023,
        5.3436651229858398,
        6.5076398849487305,
        1
      ],
      "name": "Camera"
    },
    {
      "name": ""
    }
  ],
  "samplers": [
    {
      "magFilter": 9729,
      "minFilter": 9987,
      "wrapS": 10497,
      "wrapT": 10497
    }
  ],
  "scene": 0,
  "scenes": [
    {
      "name": "OSG_Scene",
      "nodes": [
        0
      ]
    }
  ],
  "textures": [
    {
      "sampler": 0,
      "source": 0
    },
    {
      "sampler": 0,
      "source": 1
    }
  ]
}

