{
  "accessors": [
    {
      "bufferView": 2,
      "componentType": 5126,
      "count": 65532,
      "max": [
        7.1275196075439453,
        -19.917453765869141,
        9.442509651184082
      ],
      "min": [
        -5.6572751998901367,
        -28.709932327270508,
        -5.2025432586669922
      ],
      "type": "VEC3"
    },
    {
      "bufferView": 2,
      "byteOffset": 786384,
      "componentType": 5126,
      "count": 65532,
      "max": [
        0.99971878528594971,
        0.99999475479125977,
        0.99999171495437622
      ],
      "min": [
        -0.99999982118606567,
        -0.99999791383743286,
        -0.99978435039520264
      ],
      "type": "VEC3"
    },
    {
      "bufferView": 3,
      "componentType": 5126,
      "count": 65532,
      "max": [
        1,
        0.99999994039535522,
        0.99677252769470215,
        -1
      ],
      "min": [
        -1,
        -1,
        -0.99932992458343506,
        -1
      ],
      "type": "VEC4"
    },
    {
      "bufferView": 3,
      "byteOffset": 1048512,
      "componentType": 5126,
      "count": 65532,
      "max": [
        0.84313726425170898,
        0.87058824300765991,
        0.89803922176361084,
        1
      ],
      "min": [
        0,
        0,
        0,
        1
      ],
      "type": "VEC4"
    },
    {
      "bufferView": 1,
      "componentType": 5126,
      "count": 65532,
      "max": [
        0.99975597858428955,
        0.43640598654747009
      ],
      "min": [
        0.00024399999529123306,
        0.00024399999529123306
      ],
      "type": "VEC2"
    },
    {
      "bufferView": 0,
      "componentType": 5125,
      "count": 322938,
      "max": [
        65531
      ],
      "min": [
        0
      ],
      "type": "SCALAR"
    },
    {
      "bufferView": 2,
      "byteOffset": 1572768,
      "componentType": 5126,
      "count": 65532,
      "max": [
        7.1307468414306641,
        -19.914207458496094,
        9.442509651184082
      ],
      "min": [
        -9.101008415222168,
        -40.054882049560547,
        -3.5671415328979492
      ],
      "type": "VEC3"
    },
    {
      "bufferView": 2,
      "byteOffset": 2359152,
      "componentType": 5126,
      "count": 65532,
      "max": [
        0.99992328882217407,
        0.99999380111694336,
        0.99999171495437622
      ],
      "min": [
        -0.9999847412109375,
        -0.99999892711639404,
        -0.99989610910415649
      ],
      "type": "VEC3"
    },
    {
      "bufferView": 3,
      "byteOffset": 2097024,
      "componentType": 5126,
      "count": 65532,
      "max": [
        1,
        1,
        0.97051167488098145,
        -1
      ],
      "min": [
        -1,
        -1,
        -0.9999576210975647,
        -1
      ],
      "type": "VEC4"
    },
    {
      "bufferView": 3,
      "byteOffset": 3145536,
      "componentType": 5126,
      "count": 65532,
      "max": [
        0.99607843160629272,
        0.99607843160629272,
        0.98039215803146362,
        1
      ],
      "min": [
        0.019607843831181526,
        0.023529412224888802,
        0.027450980618596077,
        1
      ],
      "type": "VEC4"
    },
    {
      "bufferView": 1,
      "byteOffset": 524256,
      "componentType": 5126,
      "count": 65532,
      "max": [
        0.99974501132965088,
        0.43823200464248657
      ],
      "min": [
        0.00024399999529123306,
        0.00024399999529123306
      ],
      "type": "VEC2"
    },
    {
      "bufferView": 0,
      "byteOffset": 1291752,
      "componentType": 5125,
      "count": 274923,
      "max": [
        65531
      ],
      "min": [
        0
      ],
      "type": "SCALAR"
    },
    {
      "bufferView": 2,
      "byteOffset": 3145536,
      "componentType": 5126,
      "count": 65532,
      "max": [
        4.886143684387207,
        -26.974916458129883,
        8.9727659225463867
      ],
      "min": [
        -9.6825857162475586,
        -40.806976318359375,
        -5.1941628456115723
      ],
      "type": "VEC3"
    },
    {
      "bufferView": 2,
      "byteOffset": 3931920,
      "componentType": 5126,
      "count": 65532,
      "max": [
        0.99995952844619751,
        0.99992072582244873,
        0.9999735951423645
      ],
      "min": [
        -0.99999678134918213,
        -0.99997460842132568,
        -0.9999886155128479
      ],
      "type": "VEC3"
    },
    {
      "bufferView": 3,
      "byteOffset": 4194048,
      "componentType": 5126,
      "count": 65532,
      "max": [
        0.99999988079071045,
        0.99999994039535522,
        0.9866262674331665,
        1
      ],
      "min": [
        -0.99999988079071045,
        -1,
        -0.94667518138885498,
        -1
      ],
      "type": "VEC4"
    },
    {
      "bufferView": 3,
      "byteOffset": 5242560,
      "componentType": 5126,
      "count": 65532,
      "max": [
        0.98823529481887817,
        0.98823529481887817,
        0.99607843160629272,
        1
      ],
      "min": [
        0.078431375324726105,
        0.090196080505847931,
        0.10588235408067703,
        1
      ],
      "type": "VEC4"
    },
    {
      "bufferView": 1,
      "byteOffset": 1048512,
      "componentType": 5126,
      "count": 65532,
      "max": [
        0.99975597858428955,
        0.43530300259590149
      ],
      "min": [
        0.00024399999529123306,
        0.00024399999529123306
      ],
      "type": "VEC2"
    },
    {
      "bufferView": 0,
      "byteOffset": 2391444,
      "componentType": 5125,
      "count": 308892,
      "max": [
        65531
      ],
      "min": [
        0
      ],
      "type": "SCALAR"
    },
    {
      "bufferView": 2,
      "byteOffset": 4718304,
      "componentType": 5126,
      "count": 65532,
      "max": [
        4.886143684387207,
        -26.820611953735352,
        8.9727659225463867
      ],
      "min": [
        -9.353337287902832,
        -44.760276794433594,
        -4.9698257446289062
      ],
      "type": "VEC3"
    },
    {
      "bufferView": 2,
      "byteOffset": 5504688,
      "componentType": 5126,
      "count": 65532,
      "max": [
        0.9999813437461853,
        0.99978166818618774,
        0.99989426136016846
      ],
      "min": [
        -0.99999678134918213,
        -0.99982619285583496,
        -0.9999886155128479
      ],
      "type": "VEC3"
    },
    {
      "bufferView": 3,
      "byteOffset": 6291072,
      "componentType": 5126,
      "count": 65532,
      "max": [
        0.99999988079071045,
        1,
        0.96882921457290649,
        -1
      ],
      "min": [
        -1,
        -0.99999970197677612,
        -0.99670368432998657,
        -1
      ],
      "type": "VEC4"
    },
    {
      "bufferView": 3,
      "byteOffset": 7339584,
      "componentType": 5126,
      "count": 65532,
      "max": [
        0.94509804248809814,
        0.99215686321258545,
        0.99607843160629272,
        1
      ],
      "min": [
        0.08235294371843338,
        0.10980392247438431,
        0.098039217293262482,
        1
      ],
      "type": "VEC4"
    },
    {
      "bufferView": 1,
      "byteOffset": 1572768,
      "componentType": 5126,
      "count": 65532,
      "max": [
        0.99975597858428955,
        0.44799798727035522
      ],
      "min": [
        0.00024399999529123306,
        0.00024399999529123306
      ],
      "type": "VEC2"
    },
    {
      "bufferView": 0,
      "byteOffset": 3627012,
      "componentType": 5125,
      "count": 288579,
      "max": [
        65531
      ],
      "min": [
        0
      ],
      "type": "SCALAR"
    },
    {
      "bufferView": 2,
      "byteOffset": 6291072,
      "componentType": 5126,
      "count": 65532,
      "max": [
        7.1405258178710938,
        -19.912899017333984,
        5.5493245124816895
      ],
      "min": [
        -9.5028324127197266,
        -44.760276794433594,
        -7.795710563659668
      ],
      "type": "VEC3"
    },
    {
      "bufferView": 2,
      "byteOffset": 7077456,
      "componentType": 5126,
      "count": 65532,
      "max": [
        0.99994641542434692,
        0.99999845027923584,
        0.99980306625366211
      ],
      "min": [
        -0.99996525049209595,
        -0.99999397993087769,
        -0.99997580051422119
      ],
      "type": "VEC3"
    },
    {
      "bufferView": 3,
      "byteOffset": 8388096,
      "componentType": 5126,
      "count": 65532,
      "max": [
        1,
        1,
        0.99161684513092041,
        -1
      ],
      "min": [
        -1,
        -1,
        -0.99999386072158813,
        -1
      ],
      "type": "VEC4"
    },
    {
      "bufferView": 3,
      "byteOffset": 9436608,
      "componentType": 5126,
      "count": 65532,
      "max": [
        0.94509804248809814,
        0.97254902124404907,
        0.99607843160629272,
        1
      ],
      "min": [
        0.043137256056070328,
        0.054901961237192154,
        0.058823529630899429,
        1
      ],
      "type": "VEC4"
    },
    {
      "bufferView": 1,
      "byteOffset": 2097024,
      "componentType": 5126,
      "count": 65532,
      "max": [
        0.99975597858428955,
        0.45776399970054626
      ],
      "min": [
        0.00024399999529123306,
        0.00024399999529123306
      ],
      "type": "VEC2"
    },
    {
      "bufferView": 0,
      "byteOffset": 4781328,
      "componentType": 5125,
      "count": 297006,
      "max": [
        65531
      ],
      "min": [
        0
      ],
      "type": "SCALAR"
    },
    {
      "bufferView": 2,
      "byteOffset": 7863840,
      "componentType": 5126,
      "count": 2472,
      "max": [
        3.8830845355987549,
        -20.042312622070312,
        -3.3890674114227295
      ],
      "min": [
        1.3960239887237549,
        -26.337947845458984,
        -7.4588394165039062
      ],
      "type": "VEC3"
    },
    {
      "bufferView": 2,
      "byteOffset": 7893504,
      "componentType": 5126,
      "count": 2472,
      "max": [
        0.99955070018768311,
        0.95023435354232788,
        0.92316406965255737
      ],
      "min": [
        -0.99930912256240845,
        -0.99993699789047241,
        -0.9997066855430603
      ],
      "type": "VEC3"
    },
    {
      "bufferView": 3,
      "byteOffset": 10485120,
      "componentType": 5126,
      "count": 2472,
      "max": [
        0.99999946355819702,
        0.99999934434890747,
        0.89216136932373047,
        -1
      ],
      "min": [
        -0.99989336729049683,
        -0.9999886155128479,
        -0.85742360353469849,
        -1
      ],
      "type": "VEC4"
    },
    {
      "bufferView": 3,
      "byteOffset": 10524672,
      "componentType": 5126,
      "count": 2472,
      "max": [
        0.75686275959014893,
        0.81176471710205078,
        0.80000001192092896,
        1
      ],
      "min": [
        0.074509806931018829,
        0.094117648899555206,
        0.094117648899555206,
        1
      ],
      "type": "VEC4"
    },
    {
      "bufferView": 1,
      "byteOffset": 2621280,
      "componentType": 5126,
      "count": 2472,
      "max": [
        0.99752098321914673,
        0.45010200142860413
      ],
      "min": [
        0.035399999469518661,
        0.0021969999652355909
      ],
      "type": "VEC2"
    },
    {
      "bufferView": 0,
      "byteOffset": 5969352,
      "componentType": 5125,
      "count": 7662,
      "max": [
        2471
      ],
      "min": [
        0
      ],
      "type": "SCALAR"
    }
  ],
  "asset": {
    "extras": {
      "author": "Geoffrey Marchal (https://sketchfab.com/geoffreymarchal)",
      "license": "CC-BY-NC-4.0 (http://creativecommons.org/licenses/by-nc/4.0/)",
      "source": "https://sketchfab.com/models/0a4c099e91424e3898922b160bdb0a5a",
      "title": "Statue Panthere - Anspach fountain"
    },
    "generator": "Sketchfab-3.18.5",
    "version": "2.0"
  },
  "bufferViews": [
    {
      "buffer": 0,
      "byteLength": 6000000,
      "byteOffset": 0,
      "name": "floatBufferViews",
      "target": 34963
    },
    {
      "buffer": 0,
      "byteLength": 2641056,
      "byteOffset": 6000000,
      "byteStride": 8,
      "name": "floatBufferViews",
      "target": 34962
    },
    {
      "buffer": 0,
      "byteLength": 7923168,
      "byteOffset": 8641056,
      "byteStride": 12,
      "name": "floatBufferViews",
      "target": 34962
    },
    {
      "buffer": 0,
      "byteLength": 10564224,
      "byteOffset": 16564224,
      "byteStride": 16,
      "name": "floatBufferViews",
      "target": 34962
    }
  ],
  "buffers": [
    {
      "byteLength": 27128448,
      "uri": "scene.bin"
    }
  ],
  "images": [
    {
      "uri": "textures/statue_panthere_-_LowPoly_Material_u1_v1_baseColor.jpeg"
    }
  ],
  "materials": [
    {
      "doubleSided": true,
      "name": "statue_panthere_-_LowPoly_Material_u1_v1",
      "pbrMetallicRoughness": {
        "baseColorFactor": [
          1,
          1,
          1,
          1
        ],
        "baseColorTexture": {
          "index": 0,
          "texCoord": 0
        },
        "metallicFactor": 0,
        "roughnessFactor": 1
      }
    }
  ],
  "meshes": [
    {
      "primitives": [
        {
          "attributes": {
            "COLOR_0": 3,
            "NORMAL": 1,
            "POSITION": 0,
            "TANGENT": 2,
            "TEXCOORD_0": 4
          },
          "indices": 5,
          "material": 0,
          "mode": 4
        }
      ]
    },
    {
      "primitives": [
        {
          "attributes": {
            "COLOR_0": 9,
            "NORMAL": 7,
            "POSITION": 6,
            "TANGENT": 8,
            "TEXCOORD_0": 10
          },
          "indices": 11,
          "material": 0,
          "mode": 4
        }
      ]
    },
    {
      "primitives": [
        {
          "attributes": {
            "COLOR_0": 15,
            "NORMAL": 13,
            "POSITION": 12,
            "TANGENT": 14,
            "TEXCOORD_0": 16
          },
          "indices": 17,
          "material": 0,
          "mode": 4
        }
      ]
    },
    {
      "primitives": [
        {
          "attributes": {
            "COLOR_0": 21,
            "NORMAL": 19,
            "POSITION": 18,
            "TANGENT": 20,
            "TEXCOORD_0": 22
          },
          "indices": 23,
          "material": 0,
          "mode": 4
        }
      ]
    },
    {
      "primitives": [
        {
          "attributes": {
            "COLOR_0": 27,
            "NORMAL": 25,
            "POSITION": 24,
            "TANGENT": 26,
            "TEXCOORD_0": 28
          },
          "indices": 29,
          "material": 0,
          "mode": 4
        }
      ]
    },
    {
      "primitives": [
        {
          "attributes": {
            "COLOR_0": 33,
            "NORMAL": 31,
            "POSITION": 30,
            "TANGENT": 32,
            "TEXCOORD_0": 34
          },
          "indices": 35,
          "material": 0,
          "mode": 4
        }
      ]
    }
  ],
  "nodes": [
    {
      "children": [
        1
      ],
      "name": "RootNode (gltf orientation matrix)",
      "rotation": [
        -0.70710678118654746,
        -0,
        -0,
        0.70710678118654757
      ]
    },
    {
      "children": [
        2
      ],
      "matrix": [
        0.93350028991699219,
        0.35857656598091125,
        0,
        0,
        -0.0083539150655269623,
        0.021748164668679237,
        -0.99972856044769287,
        0,
        -0.35847923159599304,
        0.93324697017669678,
        0.023297436535358429,
        0,
        -0.059491537511348724,
        -31.946012496948242,
        -31.523622512817383,
        1
      ],
      "name": "RootNode (model correction matrix)"
    },
    {
      "children": [
        3,
        4,
        5,
        6,
        7,
        8
      ],
      "name": "statue_panthere_-_LowPoly.obj.cleaner.materialmerger.gles"
    },
    {
      "mesh": 0,
      "name": ""
    },
    {
      "mesh": 1,
      "name": ""
    },
    {
      "mesh": 2,
      "name": ""
    },
    {
      "mesh": 3,
      "name": ""
    },
    {
      "mesh": 4,
      "name": ""
    },
    {
      "mesh": 5,
      "name": ""
    }
  ],
  "samplers": [
    {
      "magFilter": 9729,
      "minFilter": 9987,
      "wrapS": 10497,
      "wrapT": 10497
    }
  ],
  "scene": 0,
  "scenes": [
    {
      "name": "OSG_Scene",
      "nodes": [
        0
      ]
    }
  ],
  "textures": [
    {
      "sampler": 0,
      "source": 0
    }
  ]
}

